<svg width="130" height="44" viewBox="0 0 130 44" fill="none" xmlns="http://www.w3.org/2000/svg">
<circle cx="94" cy="22" r="22" fill="#00F0FF" fill-opacity="0.11"/>
<path d="M11.73 33.48C8.57 33.48 5.95 32.43 3.87 30.33C1.79 28.23 0.75 25.62 0.75 22.5C0.75 19.38 1.79 16.77 3.87 14.67C5.95 12.57 8.57 11.52 11.73 11.52C13.67 11.52 15.46 11.98 17.1 12.9C18.74 13.82 20.02 15.06 20.94 16.62L15.72 19.62C15.38 18.94 14.85 18.4 14.13 18C13.41 17.6 12.61 17.4 11.73 17.4C10.25 17.4 9.05 17.88 8.13 18.84C7.21 19.8 6.75 21.02 6.75 22.5C6.75 23.98 7.21 25.2 8.13 26.16C9.05 27.12 10.25 27.6 11.73 27.6C12.63 27.6 13.43 27.4 14.13 27C14.85 26.6 15.38 26.05 15.72 25.35L20.94 28.35C20.02 29.93 18.74 31.18 17.1 32.1C15.46 33.02 13.67 33.48 11.73 33.48ZM29.9967 33.42C27.7567 33.42 25.8467 32.66 24.2667 31.14C22.7067 29.62 21.9267 27.74 21.9267 25.5C21.9267 23.26 22.7067 21.38 24.2667 19.86C25.8267 18.34 27.7367 17.58 29.9967 17.58C32.2567 17.58 34.1667 18.34 35.7267 19.86C37.2867 21.38 38.0667 23.26 38.0667 25.5C38.0667 27.74 37.2867 29.62 35.7267 31.14C34.1667 32.66 32.2567 33.42 29.9967 33.42ZM28.1667 27.42C28.6467 27.9 29.2567 28.14 29.9967 28.14C30.7367 28.14 31.3367 27.9 31.7967 27.42C32.2767 26.92 32.5167 26.28 32.5167 25.5C32.5167 24.72 32.2767 24.09 31.7967 23.61C31.3367 23.11 30.7367 22.86 29.9967 22.86C29.2567 22.86 28.6467 23.11 28.1667 23.61C27.7067 24.09 27.4767 24.72 27.4767 25.5C27.4767 26.28 27.7067 26.92 28.1667 27.42ZM49.1133 18H54.6633V33H49.1133V31.53C48.1933 32.79 46.8533 33.42 45.0933 33.42C43.4533 33.42 42.1333 32.86 41.1333 31.74C40.1533 30.6 39.6633 28.91 39.6633 26.67V18H45.2133V26.07C45.2133 27.41 45.8333 28.08 47.0733 28.08C47.7333 28.08 48.2333 27.87 48.5733 27.45C48.9333 27.03 49.1133 26.45 49.1133 25.71V18ZM65.7691 12C67.9491 12 69.7691 12.69 71.2291 14.07C72.6891 15.43 73.4191 17.25 73.4191 19.53C73.4191 21.81 72.6891 23.64 71.2291 25.02C69.7691 26.38 67.9491 27.06 65.7691 27.06H63.3691V33H57.3691V12H65.7691ZM65.7691 21.24C66.2291 21.24 66.6191 21.09 66.9391 20.79C67.2591 20.47 67.4191 20.05 67.4191 19.53C67.4191 19.01 67.2591 18.6 66.9391 18.3C66.6191 17.98 66.2291 17.82 65.7691 17.82H63.3691V21.24H65.7691ZM80.4609 20.91C80.7409 19.89 81.2909 19.1 82.1109 18.54C82.9309 17.98 83.8809 17.7 84.9609 17.7V23.7C83.7609 23.54 82.7109 23.78 81.8109 24.42C80.9109 25.04 80.4609 26.04 80.4609 27.42V33H74.9109V18H80.4609V20.91ZM89.3904 16.86C88.5504 16.86 87.8204 16.56 87.2004 15.96C86.6004 15.34 86.3004 14.62 86.3004 13.8C86.3004 12.98 86.6004 12.27 87.2004 11.67C87.8204 11.05 88.5504 10.74 89.3904 10.74C90.2104 10.74 90.9204 11.05 91.5204 11.67C92.1404 12.27 92.4504 12.98 92.4504 13.8C92.4504 14.62 92.1404 15.34 91.5204 15.96C90.9204 16.56 90.2104 16.86 89.3904 16.86ZM86.6004 33V18H92.1504V33H86.6004ZM101.831 33.42C99.5313 33.42 97.6213 32.67 96.1013 31.17C94.5813 29.65 93.8213 27.76 93.8213 25.5C93.8213 23.24 94.5813 21.36 96.1013 19.86C97.6213 18.34 99.5313 17.58 101.831 17.58C103.311 17.58 104.661 17.94 105.881 18.66C107.121 19.36 108.071 20.31 108.731 21.51L104.051 24.18C103.551 23.34 102.811 22.92 101.831 22.92C101.131 22.92 100.541 23.17 100.061 23.67C99.6013 24.15 99.3713 24.76 99.3713 25.5C99.3713 26.24 99.6013 26.86 100.061 27.36C100.541 27.84 101.131 28.08 101.831 28.08C102.871 28.08 103.611 27.65 104.051 26.79L108.731 29.49C108.071 30.71 107.121 31.67 105.881 32.37C104.661 33.07 103.311 33.42 101.831 33.42ZM114.754 27.39C115.234 28.39 116.254 28.89 117.814 28.89C118.734 28.89 119.584 28.57 120.364 27.93L123.994 30.99C122.494 32.61 120.374 33.42 117.634 33.42C115.074 33.42 113.014 32.68 111.454 31.2C109.914 29.7 109.144 27.82 109.144 25.56C109.144 23.28 109.894 21.38 111.394 19.86C112.914 18.34 114.824 17.58 117.124 17.58C119.404 17.58 121.274 18.33 122.734 19.83C124.214 21.31 124.954 23.18 124.954 25.44C124.954 26.1 124.874 26.75 124.714 27.39H114.754ZM114.664 23.82H119.704C119.364 22.62 118.554 22.02 117.274 22.02C115.974 22.02 115.104 22.62 114.664 23.82Z" fill="#2E3A59"/>
</svg>
